<svg width="320" height="80" viewBox="0 0 320 80" fill="none" xmlns="http://www.w3.org/2000/svg">
<path d="M9.98868 69.0957H45.6995V77.4468H0V0H9.98868V69.0957Z" fill="white"/>
<path d="M78.7708 78.5106C71.1801 78.5106 65.004 75.9574 60.2426 70.8511C55.4812 65.7092 53.1004 58.8475 53.1004 50.266V48.4574C53.1004 42.7482 54.1528 37.6596 56.2575 33.1915C58.3967 28.6879 61.364 25.1773 65.1593 22.6596C68.9892 20.1064 73.1296 18.8298 77.5805 18.8298C84.8606 18.8298 90.5192 21.2943 94.556 26.2234C98.5929 31.1525 100.611 38.2092 100.611 47.3936V51.4894H62.6751C62.8131 57.1631 64.4175 61.7553 67.4883 65.266C70.5936 68.7411 74.5269 70.4787 79.2884 70.4787C82.6697 70.4787 85.5335 69.7695 87.8797 68.3511C90.2259 66.9326 92.2788 65.0532 94.0385 62.7128L99.8868 67.3936C95.1944 74.805 88.1557 78.5106 78.7708 78.5106ZM77.5805 26.9149C73.7161 26.9149 70.4728 28.3688 67.8506 31.2766C65.2283 34.1489 63.6067 38.1915 62.9856 43.4043H91.0367V42.6596C90.7607 37.6596 89.4496 33.7943 87.1034 31.0638C84.7571 28.2979 81.5828 26.9149 77.5805 26.9149Z" fill="white"/>
<path d="M146.311 77.4468C145.759 76.312 145.31 74.2908 144.965 71.383C140.514 76.1347 135.201 78.5106 129.025 78.5106C123.504 78.5106 118.967 76.9149 115.413 73.7234C111.894 70.4964 110.134 66.4184 110.134 61.4894C110.134 55.4965 112.342 50.8511 116.759 47.5532C121.21 44.2199 127.455 42.5532 135.494 42.5532H144.81V38.0319C144.81 34.5922 143.809 31.8617 141.808 29.8404C139.807 27.7837 136.857 26.7553 132.958 26.7553C129.542 26.7553 126.679 27.6418 124.367 29.4149C122.055 31.1879 120.899 33.3333 120.899 35.8511H111.273C111.273 32.9787 112.256 30.2128 114.223 27.5532C116.224 24.8582 118.915 22.7305 122.297 21.1702C125.712 19.6099 129.456 18.8298 133.527 18.8298C139.98 18.8298 145.034 20.4965 148.692 23.8298C152.349 27.1277 154.247 31.6844 154.385 37.5V63.9894C154.385 69.273 155.04 73.4752 156.351 76.5957V77.4468H146.311ZM130.422 69.9468C133.424 69.9468 136.27 69.1489 138.962 67.5532C141.653 65.9574 143.602 63.883 144.81 61.3298V49.5213H137.306C125.574 49.5213 119.709 53.0496 119.709 60.1064C119.709 63.1915 120.709 65.6028 122.711 67.3404C124.712 69.078 127.282 69.9468 130.422 69.9468Z" fill="white"/>
<path d="M196.461 28.7234C195.012 28.4752 193.442 28.3511 191.752 28.3511C185.472 28.3511 181.211 31.0993 178.968 36.5957V77.4468H169.394V19.8936H178.709L178.865 26.5426C182.004 21.4007 186.455 18.8298 192.217 18.8298C194.081 18.8298 195.495 19.078 196.461 19.5745V28.7234Z" fill="white"/>
<path d="M214.368 19.8936L214.679 27.1277C218.957 21.5957 224.547 18.8298 231.448 18.8298C243.282 18.8298 249.251 25.6915 249.355 39.4149V77.4468H239.78V39.3617C239.746 35.2128 238.814 32.1454 236.985 30.1596C235.191 28.1738 232.379 27.1808 228.549 27.1808C225.444 27.1808 222.718 28.0319 220.372 29.734C218.026 31.4362 216.197 33.6702 214.886 36.4362V77.4468H205.311V19.8936H214.368Z" fill="white"/>
<path d="M286.942 32.5425V48.8137L297.521 54.2374M313.388 48.8136C313.388 63.7909 301.548 75.9323 286.942 75.9323C272.336 75.9323 260.496 63.7909 260.496 48.8136C260.496 33.8364 272.336 21.695 286.942 21.695C301.548 21.695 313.388 33.8364 313.388 48.8136Z" stroke="#E53E3E" stroke-width="3.96694" stroke-linecap="round" stroke-linejoin="round"/>
</svg>
